<svg width="734" height="581" viewBox="0 0 734 581" fill="none" xmlns="http://www.w3.org/2000/svg">
<g clip-path="url(#clip0_2_22)">
<path d="M198.75 175.14C196.421 174.999 194.18 174.198 192.29 172.83C190.184 171.608 188.55 169.713 187.65 167.45L128.65 9.35002C128.363 8.61054 128.221 7.82305 128.23 7.03001C128.204 6.42831 128.304 5.82787 128.523 5.26671C128.741 4.70555 129.074 4.19588 129.5 3.77C130.007 3.31289 130.602 2.9644 131.249 2.74599C131.895 2.52757 132.58 2.44386 133.26 2.50001H189.54C191.793 2.63092 193.948 3.46703 195.7 4.89003C197.671 6.19075 199.142 8.12318 199.87 10.37L228.79 110.14L258.74 10.14C259.493 8.01312 260.892 6.17431 262.74 4.88002C264.529 3.37714 266.783 2.53977 269.12 2.51002H323.89C325.24 2.44268 326.562 2.90971 327.57 3.81001C328.015 4.21921 328.365 4.71974 328.598 5.27727C328.832 5.83479 328.941 6.43613 328.92 7.04002C328.902 7.84769 328.757 8.64747 328.49 9.41002L267.49 167.41C266.52 169.581 264.944 171.425 262.95 172.72C261.041 174.205 258.708 175.042 256.29 175.11L198.75 175.14Z" fill="white"/>
<path d="M349.1 175.14C347.1 175.089 345.199 174.26 343.8 172.83C343.009 172.155 342.377 171.314 341.948 170.367C341.52 169.42 341.305 168.39 341.32 167.35V62.81C341.322 61.7997 341.526 60.8 341.919 59.8694C342.312 58.9388 342.887 58.0959 343.61 57.39C344.304 56.6278 345.153 56.0222 346.1 55.6135C347.046 55.2049 348.069 55.0025 349.1 55.02H402.1C403.098 55.053 404.08 55.2839 404.988 55.6993C405.896 56.1147 406.712 56.7064 407.39 57.44C408.159 58.11 408.778 58.9345 409.207 59.8597C409.636 60.785 409.865 61.7902 409.88 62.81V167.35C409.879 168.359 409.675 169.357 409.282 170.287C408.889 171.216 408.313 172.057 407.59 172.76C406.898 173.526 406.05 174.135 405.103 174.546C404.156 174.956 403.132 175.159 402.1 175.14H349.1ZM349.1 40.08C347.101 40.0235 345.202 39.1957 343.8 37.77C343.01 37.0942 342.379 36.253 341.95 35.306C341.522 34.359 341.306 33.3294 341.32 32.29V10.29C341.45 8.31937 342.318 6.47008 343.75 5.11002C344.4 4.315 345.215 3.67072 346.139 3.2218C347.063 2.77288 348.073 2.53003 349.1 2.51001H402.1C403.097 2.54333 404.078 2.77339 404.986 3.18698C405.893 3.60057 406.711 4.18955 407.39 4.92001C408.159 5.59 408.778 6.41447 409.207 7.33972C409.636 8.26497 409.865 9.27023 409.88 10.29V32.29C409.75 34.2606 408.882 36.1099 407.45 37.47C406.8 38.2663 405.985 38.9121 405.062 39.3628C404.138 39.8134 403.128 40.0581 402.1 40.08H349.1Z" fill="white"/>
<path d="M489.24 176.64C470.74 176.64 455.04 172.05 442.55 162.99C430.06 153.93 423.95 140.6 423.95 123.08C423.95 108.54 430.95 95.57 444.87 84.52C458.574 73.5026 475.678 67.5857 493.26 67.78C501.317 67.649 509.364 68.3934 517.26 70C523.75 71.46 530.59 74.6 537.6 79.33L539.51 80.61V68.31C539.51 62.18 535.84 57.11 528.61 53.23C521.61 49.48 512.5 47.58 501.52 47.58C482.666 47.5569 464.093 52.158 447.43 60.98C446.947 61.2919 446.385 61.4585 445.81 61.46C445.095 61.4378 444.393 61.264 443.75 60.95C442.87 60.55 441.75 59.74 441.75 57.3V26.3C441.75 20.59 444.06 16.69 448.82 14.39C468.762 4.99041 490.524 0.0816206 512.57 0.0100098C537.57 0.0100098 559.57 6.36999 578.04 18.93C596.35 31.39 605.64 45.65 605.64 61.32V167.32C605.638 168.33 605.434 169.33 605.041 170.261C604.648 171.191 604.073 172.034 603.35 172.74C602.656 173.502 601.807 174.108 600.86 174.516C599.914 174.925 598.891 175.127 597.86 175.11H549.26C547.246 175.127 545.3 174.385 543.81 173.03C542.215 171.689 541.192 169.79 540.95 167.72V163.72L539.19 164.58C522.79 172.56 505.95 176.64 489.24 176.64ZM516.5 106.86C509.8 106.86 504.08 108.26 499.5 111.03C494.72 113.93 492.29 118.03 492.29 123.08C492.29 128.13 494.68 132.18 499.4 134.9C503.9 137.49 509.66 138.81 516.52 138.81C524.11 138.849 531.64 137.465 538.72 134.73L539.5 134.42V112.57L538.81 112.23C531.882 108.756 524.25 106.919 516.5 106.86V106.86Z" fill="white"/>
<path d="M7.79 376.72C6.78105 376.719 5.7826 376.515 4.85347 376.122C3.92434 375.729 3.08332 375.153 2.37999 374.43C1.61493 373.737 1.00678 372.889 0.5963 371.942C0.185823 370.996 -0.0174853 369.972 2.01014e-06 368.94V211.84C0.00362735 210.831 0.207976 209.834 0.601137 208.905C0.994299 207.976 1.5684 207.135 2.29 206.43C2.98625 205.668 3.83675 205.062 4.78501 204.653C5.73327 204.245 6.75759 204.042 7.79 204.06H60.79C61.7871 204.093 62.7677 204.323 63.6756 204.737C64.5834 205.151 65.4005 205.74 66.08 206.47C66.8513 207.139 67.4726 207.963 67.9034 208.888C68.3342 209.813 68.5648 210.819 68.58 211.84V325.62H100.31L141.37 324.37C143.369 324.436 145.263 325.279 146.65 326.72C147.42 327.355 148.042 328.152 148.47 329.054C148.899 329.956 149.124 330.941 149.13 331.94V368.94C149.098 369.936 148.868 370.915 148.454 371.822C148.04 372.728 147.451 373.543 146.72 374.22C146.053 374.994 145.23 375.617 144.304 376.048C143.378 376.479 142.371 376.708 141.35 376.72H7.79Z" fill="white"/>
<path d="M247.34 379.2C219.75 379.2 197.21 371.94 180.34 357.61C163.47 343.28 155.01 324.42 155.01 301.39V211.84C155.014 210.831 155.218 209.834 155.611 208.905C156.004 207.976 156.578 207.135 157.3 206.43C157.994 205.668 158.843 205.062 159.79 204.654C160.736 204.245 161.759 204.043 162.79 204.06H216.79C217.785 204.095 218.764 204.325 219.67 204.739C220.576 205.152 221.392 205.741 222.07 206.47C222.84 207.139 223.461 207.964 223.892 208.889C224.322 209.814 224.554 210.82 224.57 211.84V301.64C224.57 309.41 226.57 315.64 230.49 320.19C234.41 324.74 240.12 327.12 247.3 327.12C254.48 327.12 260.13 324.79 264.1 320.19C268.07 315.59 270.03 309.41 270.03 301.64V211.84C270.034 210.831 270.238 209.834 270.631 208.905C271.024 207.976 271.598 207.135 272.32 206.43C273.014 205.668 273.863 205.062 274.81 204.654C275.756 204.245 276.779 204.043 277.81 204.06H331.81C332.805 204.095 333.784 204.325 334.69 204.739C335.596 205.152 336.412 205.741 337.09 206.47C337.86 207.139 338.481 207.964 338.912 208.889C339.342 209.814 339.574 210.82 339.59 211.84V301.39C339.59 324.39 331.07 343.33 314.26 357.61C297.45 371.89 274.95 379.2 247.34 379.2Z" fill="white"/>
<path d="M481.01 376.72C478.619 376.407 476.321 375.592 474.267 374.328C472.213 373.065 470.449 371.382 469.09 369.39L445.74 320.33L422.38 369.42C421.082 371.461 419.336 373.18 417.273 374.445C415.211 375.71 412.888 376.488 410.48 376.72H351.7C350.631 376.764 349.576 376.454 348.7 375.84C348.367 375.594 348.101 375.268 347.926 374.892C347.752 374.517 347.674 374.103 347.7 373.69C347.816 372.744 348.181 371.847 348.76 371.09L405.76 283.86L351.49 209.4C350.42 207.93 350.14 206.69 350.62 205.61C350.79 205.23 351.3 204.08 354.26 204.08H413.26C415.668 204.23 417.998 204.99 420.03 206.29C422.271 207.479 424.142 209.26 425.44 211.44L445.74 249.72L466.08 211.43C467.432 209.345 469.263 207.613 471.42 206.38C473.44 204.987 475.809 204.187 478.26 204.07H537.26C539 204.07 540.13 204.54 540.73 205.5C541.07 206.19 541.43 207.5 540.03 209.39L485.76 283.85L542.76 371.1C543.337 371.939 543.682 372.915 543.76 373.93C543.76 374.83 543.76 376.71 539.76 376.71L481.01 376.72Z" fill="white"/>
<path d="M641.43 379.2C613.84 379.2 591.3 371.94 574.43 357.61C557.56 343.28 549.1 324.42 549.1 301.39V211.84C549.104 210.831 549.308 209.834 549.701 208.905C550.094 207.976 550.668 207.135 551.39 206.43C552.084 205.668 552.933 205.062 553.88 204.654C554.826 204.245 555.849 204.043 556.88 204.06H610.88C611.877 204.094 612.857 204.325 613.765 204.739C614.673 205.152 615.49 205.74 616.17 206.47C616.939 207.14 617.557 207.965 617.986 208.89C618.415 209.815 618.645 210.82 618.66 211.84V301.64C618.66 309.41 620.66 315.64 624.59 320.19C628.52 324.74 634.22 327.12 641.39 327.12C648.56 327.12 654.22 324.79 658.2 320.19C662.18 315.59 664.13 309.41 664.13 301.64V211.84C664.132 210.832 664.334 209.834 664.726 208.906C665.117 207.977 665.69 207.135 666.41 206.43C667.106 205.668 667.957 205.062 668.905 204.653C669.853 204.245 670.878 204.042 671.91 204.06H725.91C726.907 204.093 727.888 204.323 728.796 204.737C729.704 205.151 730.521 205.74 731.2 206.47C731.971 207.139 732.593 207.963 733.023 208.888C733.454 209.813 733.685 210.819 733.7 211.84V301.39C733.7 324.39 725.17 343.33 708.36 357.61C691.55 371.89 669.02 379.2 641.43 379.2Z" fill="white"/>
<path d="M459.76 580.77C448.164 580.6 436.632 579.015 425.42 576.05C412.99 572.93 402.69 569.18 394.81 564.91C392.643 563.786 390.844 562.063 389.628 559.947C388.412 557.83 387.829 555.408 387.95 552.97V519.46C387.895 518.711 388.035 517.96 388.358 517.281C388.68 516.603 389.174 516.02 389.79 515.59C390.296 515.223 390.905 515.024 391.53 515.02C392.361 515.058 393.168 515.313 393.87 515.76C414.87 527 435.55 532.68 455.51 532.68C465.32 532.68 473.84 530.87 480.83 527.3C488.07 523.58 491.75 518.93 491.75 513.45V510.27L490.14 510.79C480.394 513.85 470.225 515.349 460.01 515.23C436.06 515.23 417.1 509.69 403.63 498.75C390.16 487.81 383.44 474.23 383.44 458.18V413.41C383.473 412.412 383.704 411.43 384.119 410.522C384.535 409.614 385.126 408.798 385.86 408.12C386.528 407.349 387.352 406.728 388.278 406.298C389.203 405.869 390.21 405.641 391.23 405.63H444C446.001 405.682 447.903 406.507 449.31 407.93C450.099 408.606 450.73 409.447 451.159 410.394C451.588 411.341 451.803 412.371 451.79 413.41V452.18C451.7 454.772 452.183 457.351 453.205 459.735C454.226 462.119 455.761 464.248 457.7 465.97C461.58 469.41 466.7 471.15 473.02 471.15C479.008 471.191 484.98 470.52 490.81 469.15L491.75 468.92V413.41C491.75 412.402 491.951 411.403 492.343 410.474C492.734 409.545 493.308 408.704 494.03 408C494.725 407.237 495.576 406.63 496.524 406.221C497.473 405.813 498.497 405.611 499.53 405.63H552.53C553.527 405.661 554.509 405.89 555.417 406.304C556.325 406.718 557.142 407.308 557.82 408.04C558.592 408.708 559.214 409.532 559.645 410.457C560.076 411.383 560.306 412.389 560.32 413.41V519.41C560.32 536.22 550.46 550.76 531.01 562.64C511.4 574.72 487.41 580.77 459.76 580.77Z" fill="white"/>
<path d="M198.75 175.14C196.421 174.999 194.18 174.198 192.29 172.83C190.184 171.608 188.55 169.713 187.65 167.45L128.65 9.35002C128.363 8.61054 128.221 7.82305 128.23 7.03001C128.204 6.42831 128.304 5.82787 128.523 5.26671C128.741 4.70555 129.074 4.19588 129.5 3.77C130.007 3.31289 130.602 2.9644 131.249 2.74599C131.895 2.52757 132.58 2.44386 133.26 2.50001H189.54C191.793 2.63092 193.948 3.46703 195.7 4.89003C197.671 6.19075 199.142 8.12318 199.87 10.37L228.79 110.14L258.74 10.14C259.493 8.01312 260.892 6.17431 262.74 4.88002C264.529 3.37714 266.783 2.53977 269.12 2.51002H323.89C325.24 2.44268 326.562 2.90971 327.57 3.81001C328.015 4.21921 328.365 4.71974 328.598 5.27727C328.832 5.83479 328.941 6.43613 328.92 7.04002C328.902 7.84769 328.757 8.64747 328.49 9.41002L267.49 167.41C266.52 169.581 264.944 171.425 262.95 172.72C261.041 174.205 258.708 175.042 256.29 175.11L198.75 175.14Z" fill="white"/>
<path d="M349.1 175.14C347.1 175.089 345.199 174.26 343.8 172.83C343.009 172.155 342.377 171.314 341.948 170.367C341.52 169.42 341.305 168.39 341.32 167.35V62.81C341.322 61.7997 341.526 60.8 341.919 59.8694C342.312 58.9388 342.887 58.0959 343.61 57.39C344.304 56.6278 345.153 56.0222 346.1 55.6135C347.046 55.2049 348.069 55.0025 349.1 55.02H402.1C403.098 55.053 404.08 55.2839 404.988 55.6993C405.896 56.1147 406.712 56.7064 407.39 57.44C408.159 58.11 408.778 58.9345 409.207 59.8597C409.636 60.785 409.865 61.7902 409.88 62.81V167.35C409.879 168.359 409.675 169.357 409.282 170.287C408.889 171.216 408.313 172.057 407.59 172.76C406.898 173.526 406.05 174.135 405.103 174.546C404.156 174.956 403.132 175.159 402.1 175.14H349.1ZM349.1 40.08C347.101 40.0235 345.202 39.1957 343.8 37.77C343.01 37.0942 342.379 36.253 341.95 35.306C341.522 34.359 341.306 33.3294 341.32 32.29V10.29C341.45 8.31937 342.318 6.47008 343.75 5.11002C344.4 4.315 345.215 3.67072 346.139 3.2218C347.063 2.77288 348.073 2.53003 349.1 2.51001H402.1C403.097 2.54333 404.078 2.77339 404.986 3.18698C405.893 3.60057 406.711 4.18955 407.39 4.92001C408.159 5.59 408.778 6.41447 409.207 7.33972C409.636 8.26497 409.865 9.27023 409.88 10.29V32.29C409.75 34.2606 408.882 36.1099 407.45 37.47C406.8 38.2663 405.985 38.9121 405.062 39.3628C404.138 39.8134 403.128 40.0581 402.1 40.08H349.1Z" fill="white"/>
<path d="M489.24 176.64C470.74 176.64 455.04 172.05 442.55 162.99C430.06 153.93 423.95 140.6 423.95 123.08C423.95 108.54 430.95 95.57 444.87 84.52C458.574 73.5026 475.678 67.5857 493.26 67.78C501.317 67.649 509.364 68.3934 517.26 70C523.75 71.46 530.59 74.6 537.6 79.33L539.51 80.61V68.31C539.51 62.18 535.84 57.11 528.61 53.23C521.61 49.48 512.5 47.58 501.52 47.58C482.666 47.5569 464.093 52.158 447.43 60.98C446.947 61.2919 446.385 61.4585 445.81 61.46C445.095 61.4378 444.393 61.264 443.75 60.95C442.87 60.55 441.75 59.74 441.75 57.3V26.3C441.75 20.59 444.06 16.69 448.82 14.39C468.762 4.99041 490.524 0.0816206 512.57 0.0100098C537.57 0.0100098 559.57 6.36999 578.04 18.93C596.35 31.39 605.64 45.65 605.64 61.32V167.32C605.638 168.33 605.434 169.33 605.041 170.261C604.648 171.191 604.073 172.034 603.35 172.74C602.656 173.502 601.807 174.108 600.86 174.516C599.914 174.925 598.891 175.127 597.86 175.11H549.26C547.246 175.127 545.3 174.385 543.81 173.03C542.215 171.689 541.192 169.79 540.95 167.72V163.72L539.19 164.58C522.79 172.56 505.95 176.64 489.24 176.64ZM516.5 106.86C509.8 106.86 504.08 108.26 499.5 111.03C494.72 113.93 492.29 118.03 492.29 123.08C492.29 128.13 494.68 132.18 499.4 134.9C503.9 137.49 509.66 138.81 516.52 138.81C524.11 138.849 531.64 137.465 538.72 134.73L539.5 134.42V112.57L538.81 112.23C531.882 108.756 524.25 106.919 516.5 106.86V106.86Z" fill="white"/>
<path d="M7.79 376.72C6.78105 376.719 5.7826 376.515 4.85347 376.122C3.92434 375.729 3.08332 375.153 2.37999 374.43C1.61493 373.737 1.00678 372.889 0.5963 371.942C0.185823 370.996 -0.0174853 369.972 2.01014e-06 368.94V211.84C0.00362735 210.831 0.207976 209.834 0.601137 208.905C0.994299 207.976 1.5684 207.135 2.29 206.43C2.98625 205.668 3.83675 205.062 4.78501 204.653C5.73327 204.245 6.75759 204.042 7.79 204.06H60.79C61.7871 204.093 62.7677 204.323 63.6756 204.737C64.5834 205.151 65.4005 205.74 66.08 206.47C66.8513 207.139 67.4726 207.963 67.9034 208.888C68.3342 209.813 68.5648 210.819 68.58 211.84V325.62H100.31L141.37 324.37C143.369 324.436 145.263 325.279 146.65 326.72C147.42 327.355 148.042 328.152 148.47 329.054C148.899 329.956 149.124 330.941 149.13 331.94V368.94C149.098 369.936 148.868 370.915 148.454 371.822C148.04 372.728 147.451 373.543 146.72 374.22C146.053 374.994 145.23 375.617 144.304 376.048C143.378 376.479 142.371 376.708 141.35 376.72H7.79Z" fill="white"/>
<path d="M247.34 379.2C219.75 379.2 197.21 371.94 180.34 357.61C163.47 343.28 155.01 324.42 155.01 301.39V211.84C155.014 210.831 155.218 209.834 155.611 208.905C156.004 207.976 156.578 207.135 157.3 206.43C157.994 205.668 158.843 205.062 159.79 204.654C160.736 204.245 161.759 204.043 162.79 204.06H216.79C217.785 204.095 218.764 204.325 219.67 204.739C220.576 205.152 221.392 205.741 222.07 206.47C222.84 207.139 223.461 207.964 223.892 208.889C224.322 209.814 224.554 210.82 224.57 211.84V301.64C224.57 309.41 226.57 315.64 230.49 320.19C234.41 324.74 240.12 327.12 247.3 327.12C254.48 327.12 260.13 324.79 264.1 320.19C268.07 315.59 270.03 309.41 270.03 301.64V211.84C270.034 210.831 270.238 209.834 270.631 208.905C271.024 207.976 271.598 207.135 272.32 206.43C273.014 205.668 273.863 205.062 274.81 204.654C275.756 204.245 276.779 204.043 277.81 204.06H331.81C332.805 204.095 333.784 204.325 334.69 204.739C335.596 205.152 336.412 205.741 337.09 206.47C337.86 207.139 338.481 207.964 338.912 208.889C339.342 209.814 339.574 210.82 339.59 211.84V301.39C339.59 324.39 331.07 343.33 314.26 357.61C297.45 371.89 274.95 379.2 247.34 379.2Z" fill="white"/>
<path d="M481.01 376.72C478.619 376.407 476.321 375.592 474.267 374.328C472.213 373.065 470.449 371.382 469.09 369.39L445.74 320.33L422.38 369.42C421.082 371.461 419.336 373.18 417.273 374.445C415.211 375.71 412.888 376.488 410.48 376.72H351.7C350.631 376.764 349.576 376.454 348.7 375.84C348.367 375.594 348.101 375.268 347.926 374.892C347.752 374.517 347.674 374.103 347.7 373.69C347.816 372.744 348.181 371.847 348.76 371.09L405.76 283.86L351.49 209.4C350.42 207.93 350.14 206.69 350.62 205.61C350.79 205.23 351.3 204.08 354.26 204.08H413.26C415.668 204.23 417.998 204.99 420.03 206.29C422.271 207.479 424.142 209.26 425.44 211.44L445.74 249.72L466.08 211.43C467.432 209.345 469.263 207.613 471.42 206.38C473.44 204.987 475.809 204.187 478.26 204.07H537.26C539 204.07 540.13 204.54 540.73 205.5C541.07 206.19 541.43 207.5 540.03 209.39L485.76 283.85L542.76 371.1C543.337 371.939 543.682 372.915 543.76 373.93C543.76 374.83 543.76 376.71 539.76 376.71L481.01 376.72Z" fill="white"/>
<path d="M641.43 379.2C613.84 379.2 591.3 371.94 574.43 357.61C557.56 343.28 549.1 324.42 549.1 301.39V211.84C549.104 210.831 549.308 209.834 549.701 208.905C550.094 207.976 550.668 207.135 551.39 206.43C552.084 205.668 552.933 205.062 553.88 204.654C554.826 204.245 555.849 204.043 556.88 204.06H610.88C611.877 204.094 612.857 204.325 613.765 204.739C614.673 205.152 615.49 205.74 616.17 206.47C616.939 207.14 617.557 207.965 617.986 208.89C618.415 209.815 618.645 210.82 618.66 211.84V301.64C618.66 309.41 620.66 315.64 624.59 320.19C628.52 324.74 634.22 327.12 641.39 327.12C648.56 327.12 654.22 324.79 658.2 320.19C662.18 315.59 664.13 309.41 664.13 301.64V211.84C664.132 210.832 664.334 209.834 664.726 208.906C665.117 207.977 665.69 207.135 666.41 206.43C667.106 205.668 667.957 205.062 668.905 204.653C669.853 204.245 670.878 204.042 671.91 204.06H725.91C726.907 204.093 727.888 204.323 728.796 204.737C729.704 205.151 730.521 205.74 731.2 206.47C731.971 207.139 732.593 207.963 733.023 208.888C733.454 209.813 733.685 210.819 733.7 211.84V301.39C733.7 324.39 725.17 343.33 708.36 357.61C691.55 371.89 669.02 379.2 641.43 379.2Z" fill="white"/>
<path d="M459.76 580.77C448.164 580.6 436.632 579.015 425.42 576.05C412.99 572.93 402.69 569.18 394.81 564.91C392.643 563.786 390.844 562.063 389.628 559.947C388.412 557.83 387.829 555.408 387.95 552.97V519.46C387.895 518.711 388.035 517.96 388.358 517.281C388.68 516.603 389.174 516.02 389.79 515.59C390.296 515.223 390.905 515.024 391.53 515.02C392.361 515.058 393.168 515.313 393.87 515.76C414.87 527 435.55 532.68 455.51 532.68C465.32 532.68 473.84 530.87 480.83 527.3C488.07 523.58 491.75 518.93 491.75 513.45V510.27L490.14 510.79C480.394 513.85 470.225 515.349 460.01 515.23C436.06 515.23 417.1 509.69 403.63 498.75C390.16 487.81 383.44 474.23 383.44 458.18V413.41C383.473 412.412 383.704 411.43 384.119 410.522C384.535 409.614 385.126 408.798 385.86 408.12C386.528 407.349 387.352 406.728 388.278 406.298C389.203 405.869 390.21 405.641 391.23 405.63H444C446.001 405.682 447.903 406.507 449.31 407.93C450.099 408.606 450.73 409.447 451.159 410.394C451.588 411.341 451.803 412.371 451.79 413.41V452.18C451.7 454.772 452.183 457.351 453.205 459.735C454.226 462.119 455.761 464.248 457.7 465.97C461.58 469.41 466.7 471.15 473.02 471.15C479.008 471.191 484.98 470.52 490.81 469.15L491.75 468.92V413.41C491.75 412.402 491.951 411.403 492.343 410.474C492.734 409.545 493.308 408.704 494.03 408C494.725 407.237 495.576 406.63 496.524 406.221C497.473 405.813 498.497 405.611 499.53 405.63H552.53C553.527 405.661 554.509 405.89 555.417 406.304C556.325 406.718 557.142 407.308 557.82 408.04C558.592 408.708 559.214 409.532 559.645 410.457C560.076 411.383 560.306 412.389 560.32 413.41V519.41C560.32 536.22 550.46 550.76 531.01 562.64C511.4 574.72 487.41 580.77 459.76 580.77Z" fill="white"/>
<path d="M290.76 578.26C288.354 578.168 286.021 577.41 284.02 576.07C281.869 574.855 280.155 572.994 279.12 570.75L255.28 518.24H241.01V570.48C240.977 571.477 240.747 572.458 240.333 573.366C239.919 574.273 239.33 575.091 238.6 575.77C237.932 576.541 237.108 577.162 236.182 577.591C235.257 578.021 234.25 578.249 233.23 578.26H181.23C180.232 578.231 179.25 578.003 178.342 577.589C177.433 577.175 176.617 576.584 175.94 575.85C175.166 575.183 174.543 574.36 174.112 573.434C173.681 572.508 173.452 571.501 173.44 570.48V413.41C173.441 412.401 173.645 411.403 174.038 410.473C174.431 409.544 175.007 408.703 175.73 408C176.424 407.235 177.274 406.628 178.223 406.219C179.172 405.81 180.197 405.609 181.23 405.63C190.73 405.63 206.89 405.37 229.28 404.87C251.67 404.37 271.22 404.12 287.28 404.12C311.59 404.12 332.23 409.77 348.62 420.92C365.01 432.07 373.1 445.77 373.1 461.92C373.1 473.87 368.33 484.77 358.94 494.33C349.55 503.89 337.04 510.84 321.94 514.76L320.1 515.25L367.58 573.25C369.36 575.25 368.91 576.4 368.76 576.78C368.61 577.16 368.19 578.25 365.27 578.25L290.76 578.26ZM288.1 452.87L241.01 454.72V475.27L288.22 476.78H288.78C296.66 476.78 303.07 471.41 303.07 464.78C303.07 458.15 296.66 452.78 288.78 452.78L288.1 452.87Z" fill="white"/>
<path d="M584.95 461.28C579.355 455.672 575.877 448.297 575.108 440.412C574.34 432.528 576.328 424.621 580.735 418.037C585.142 411.454 591.695 406.602 599.277 404.308C606.86 402.014 615.003 402.419 622.321 405.454C629.638 408.49 635.677 413.968 639.409 420.956C643.141 427.944 644.335 436.01 642.787 443.779C641.24 451.549 637.047 458.542 630.923 463.567C624.799 468.592 617.122 471.339 609.2 471.34C604.685 471.409 600.204 470.551 596.033 468.821C591.863 467.091 588.091 464.524 584.95 461.28V461.28ZM588.15 415.99C583.267 420.86 580.225 427.272 579.541 434.134C578.856 440.995 580.573 447.882 584.398 453.62C588.223 459.357 593.92 463.591 600.517 465.599C607.114 467.607 614.203 467.264 620.576 464.63C626.949 461.996 632.211 457.234 635.466 451.154C638.72 445.075 639.766 438.055 638.424 431.291C637.082 424.527 633.436 418.438 628.107 414.061C622.778 409.684 616.096 407.291 609.2 407.29C605.278 407.221 601.384 407.957 597.758 409.454C594.132 410.95 590.852 413.175 588.12 415.99H588.15Z" fill="white"/>
<path d="M627.12 436.2C627.861 435.51 628.455 434.676 628.864 433.75C629.273 432.823 629.49 431.823 629.5 430.81C629.5 428.16 628.13 425.94 625.3 424.01C621.88 421.835 617.88 420.751 613.83 420.9C610.64 420.9 606.73 420.95 602.2 421.04C598.1 421.12 595.14 421.17 593.2 421.18C593.033 421.18 592.873 421.246 592.755 421.365C592.636 421.483 592.57 421.643 592.57 421.81V451.95C592.57 452.117 592.636 452.277 592.755 452.395C592.873 452.514 593.033 452.58 593.2 452.58H602.2C602.368 452.577 602.528 452.509 602.646 452.389C602.764 452.269 602.83 452.108 602.83 451.94V440.53H608.42L613.68 452.07L613.73 452.2C613.79 452.292 613.873 452.368 613.97 452.42C614.132 452.526 614.317 452.591 614.51 452.61H625.95C626.063 452.603 626.172 452.567 626.266 452.504C626.361 452.441 626.437 452.354 626.486 452.253C626.536 452.151 626.558 452.038 626.55 451.925C626.542 451.812 626.504 451.703 626.44 451.61L617.44 440.61L620.32 439.88C622.886 439.312 625.241 438.037 627.12 436.2V436.2ZM612.84 434.2L602.84 433.81V429.02L612.84 428.54C613.591 428.54 614.31 428.838 614.841 429.369C615.372 429.9 615.67 430.619 615.67 431.37C615.67 432.121 615.372 432.84 614.841 433.371C614.31 433.902 613.591 434.2 612.84 434.2Z" fill="white"/>
</g>
<defs>
<clipPath id="clip0_2_22">
<rect width="733.76" height="580.77" fill="white"/>
</clipPath>
</defs>
</svg>
